<svg width="22" height="12" viewBox="0 0 22 12" fill="none" xmlns="http://www.w3.org/2000/svg">
<path d="M0.657236 0.0612279C1.17624 -0.128772 1.75028 0.138236 1.93928 0.657236C2.61728 2.51524 3.85026 4.12028 5.47126 5.25428C7.09126 6.38828 9.02225 6.99623 11.0003 6.99623C12.9783 6.99623 14.9092 6.38828 16.5292 5.25428C18.1502 4.12028 19.3832 2.51524 20.0612 0.657236C20.2502 0.138236 20.8243 -0.128772 21.3433 0.0612279C21.8623 0.250228 22.1293 0.824271 21.9393 1.34327C21.2703 3.17727 20.1523 4.80627 18.6973 6.08827L19.7653 7.35627C20.1203 7.77827 20.0673 8.40927 19.6453 8.76527C19.2223 9.12027 18.5912 9.06624 18.2352 8.64424L17.0842 7.27625C16.2592 7.78225 15.3792 8.18325 14.4622 8.46925L14.9772 10.7833C15.0962 11.3223 14.7562 11.8572 14.2172 11.9772C13.6782 12.0962 13.1433 11.7562 13.0233 11.2172L12.5082 8.89625C12.0102 8.96125 11.5063 8.99623 11.0003 8.99623C10.4933 8.99623 9.99028 8.96125 9.49128 8.89625L8.97724 11.2172C8.85724 11.7562 8.32227 12.0962 7.78327 11.9772C7.24427 11.8572 6.90426 11.3223 7.02326 10.7833L7.53724 8.46925C6.62024 8.18325 5.74023 7.78225 4.91523 7.27625L3.76527 8.64424C3.40927 9.06624 2.77823 9.12027 2.35523 8.76527C1.93323 8.40927 1.88024 7.77827 2.23524 7.35627L3.30226 6.08827C1.84726 4.80627 0.730228 3.17727 0.0612279 1.34327C-0.128772 0.824271 0.138236 0.250228 0.657236 0.0612279Z" fill="#999999"/>
</svg>
