<svg width="22" height="16" viewBox="0 0 22 16" fill="none" xmlns="http://www.w3.org/2000/svg">
<path d="M11.0002 0C13.3272 0 15.6023 0.691046 17.5363 1.98505C19.3483 3.19805 20.7853 4.891 21.6893 6.87L21.8632 7.27002L21.8752 7.30304C22.0422 7.75204 22.0422 8.24601 21.8752 8.69501C21.8712 8.70601 21.8672 8.71703 21.8632 8.72803C20.9762 10.879 19.4693 12.719 17.5363 14.013C15.6023 15.308 13.3272 15.999 11.0002 15.999C8.67325 15.999 6.39824 15.308 4.46424 14.013C2.53124 12.719 1.02427 10.879 0.137274 8.72803C0.133274 8.71703 0.12925 8.70601 0.12525 8.69501C-0.04175 8.24601 -0.04175 7.75204 0.12525 7.30304L0.137274 7.27002C1.02427 5.11902 2.53124 3.27905 4.46424 1.98505C6.39824 0.691046 8.67325 0 11.0002 0ZM11.0002 2C9.07025 2 7.18128 2.57303 5.57728 3.64703C3.98228 4.71403 2.73825 6.22802 2.00025 7.99902C2.73825 9.77002 3.98228 11.284 5.57728 12.351C7.18128 13.425 9.07025 13.999 11.0002 13.999C12.9312 13.999 14.8192 13.425 16.4232 12.351C18.0182 11.284 19.2613 9.76902 19.9993 7.99902C19.2613 6.22802 18.0182 4.71403 16.4232 3.64703C14.8192 2.57303 12.9312 2 11.0002 2ZM13.0002 7.99902C13.0002 6.89402 12.1052 5.99902 11.0002 5.99902C9.89625 5.99902 9.00125 6.89402 9.00025 7.99902C9.00025 9.10302 9.89625 9.99902 11.0002 9.99902C12.1052 9.99902 13.0002 9.10302 13.0002 7.99902ZM15.0002 7.99902C15.0002 10.208 13.2092 11.999 11.0002 11.999C8.79125 11.999 7.00025 10.208 7.00025 7.99902C7.00125 5.79002 8.79125 3.99902 11.0002 3.99902C13.2092 3.99902 15.0002 5.79002 15.0002 7.99902Z" fill="#999999"/>
</svg>
