<svg width="190" height="22" viewBox="0 0 190 22" fill="none" xmlns="http://www.w3.org/2000/svg">
<path d="M90.1167 0.634766C82.9094 0.634766 79.2495 5.64872 79.2422 10.6298C79.231 19.2054 87.4601 20.4497 90.8062 20.4425L90.5838 19.1105C90.4232 18.1471 89.8321 17.4574 88.949 17.2458C87.3871 16.8699 85.1247 15.611 85.1247 11.3779C85.1247 8.49872 85.1135 4.28393 85.1135 4.28393H86.9346L88.0328 12.1114C88.1243 12.6186 88.5218 13.3193 89.6019 13.2207L87.8761 2.85711H89.6676L91.5837 11.2538C92.2293 11.2538 92.7076 10.6554 92.5617 10.0241L90.9852 3.70737H92.9558L94.9224 9.23586C95.499 10.6408 95.6231 12.0494 95.3642 13.3302C95.1161 14.5417 94.6451 15.4212 93.8496 16.1291C93.2331 16.6765 92.9996 17.4538 93.1966 18.3223L93.5761 19.9827C96.9003 18.9463 100.612 16.0671 100.707 10.5021C100.794 5.70346 97.1377 0.634766 90.1167 0.634766Z" fill="#00665A"/>
<path d="M4.67613 5.68489H0.0234375V3.70703H11.9818V5.68489H7.31083V17.1725H4.67248L4.67613 5.68489Z" fill="#00665A"/>
<path d="M13.1719 3.70703H15.7372V9.65189C16.4488 7.47698 18.3026 6.30195 20.0688 6.30195C21.835 6.30195 23.2253 7.35291 23.2253 9.52781V17.1728H20.66V10.3489C20.66 9.01328 19.9119 8.35278 18.8938 8.35278C17.3976 8.35278 15.7372 9.8307 15.7372 12.2574V17.1765H13.1719V3.70703Z" fill="#00665A"/>
<path d="M24.4766 11.7582C24.4766 9.03231 26.2245 6.30273 29.7533 6.30273C32.6033 6.30273 34.1213 8.03244 34.1213 11.2766V11.7765H26.6332C26.9179 13.4697 28.2206 14.8053 30.4101 14.8053C31.7275 14.8053 33.136 14.3236 34.2965 13.3967V15.911C32.9791 16.8926 31.4793 17.3743 30.0014 17.3743C26.5456 17.3707 24.4766 14.8235 24.4766 11.7582ZM31.5158 10.5285C31.5158 8.72943 30.786 7.83539 29.4139 7.83539C27.7754 7.83539 26.812 9.0834 26.615 10.5285H31.5158Z" fill="#00665A"/>
<path d="M35.6055 3.70898H45.1772V5.68684H38.2621V9.01853H44.2868V10.9964H38.2621V17.1708H35.6055V3.70898Z" fill="#00665A"/>
<path d="M45.418 11.8641C45.418 9.10165 47.3958 6.30273 51.209 6.30273C55.0226 6.30273 56.8948 9.04691 56.8948 11.8093C56.8948 14.5718 54.917 17.3707 51.1034 17.3707C47.3776 17.3707 45.418 14.6082 45.418 11.8641ZM51.2785 15.3928C53.2379 15.3928 54.2743 13.8237 54.2743 11.9699C54.2743 10.1161 53.1508 8.28058 51.0304 8.28058C49.071 8.28058 48.0344 9.84973 48.0344 11.6853C48.0381 13.6449 49.1581 15.3928 51.2785 15.3928Z" fill="#00665A"/>
<path d="M58.1484 6.48216H60.5204V9.78101C61.0897 7.35796 62.6588 6.33984 64.2644 6.33984C64.8152 6.33984 65.3699 6.50041 65.7971 6.7668V9.28107C65.2458 8.89061 64.5126 8.69356 63.8192 8.69356C62.5163 8.69356 61.2536 9.40515 60.7175 10.7261V17.1779H58.1518V6.48216H58.1484Z" fill="#00665A"/>
<path d="M71.9302 10.7974L77.0205 5.37835H74.1124L69.675 9.95441V3.70703H67.1094V17.1725H69.693L69.675 11.6805C69.675 11.6805 73.9299 11.5746 73.9299 17.1725H76.7106C76.7067 11.7571 71.9302 10.7974 71.9302 10.7974Z" fill="#00665A"/>
<path d="M105.312 3.71289H108.678L111.794 15.8113L114.91 3.71289H118.257L120.353 17.1768H118.257L116.526 4.86676L113.467 17.1768H110.121L107.062 4.86676L105.311 17.1768H103.234L105.311 3.71289H105.312Z" fill="#00665A"/>
<path d="M122.039 16.6484C121.456 16.155 121.164 15.4785 121.164 14.6191C121.164 13.8882 121.353 13.3145 121.731 12.8975C122.109 12.4807 122.594 12.176 123.184 11.9837C123.773 11.7914 124.517 11.6312 125.415 11.5027L127.627 11.1758C128.537 11.0477 129.239 10.8233 129.733 10.5025C130.226 10.1821 130.473 9.68837 130.473 9.02131C130.473 8.35424 130.21 7.83533 129.685 7.46345C129.159 7.09163 128.518 6.90552 127.761 6.90552C127.197 6.90552 126.659 7.01791 126.145 7.24197C125.633 7.46637 125.206 7.79665 124.866 8.2327C124.527 8.6688 124.344 9.20119 124.318 9.82923H122.222C122.248 8.99576 122.51 8.25863 123.011 7.61745C123.51 6.97631 124.155 6.47964 124.944 6.12679C125.732 5.77428 126.569 5.59766 127.454 5.59766C128.261 5.59766 128.989 5.73885 129.637 6.02096C130.285 6.30302 130.801 6.73912 131.185 7.32882C131.57 7.91887 131.762 8.64325 131.762 9.50227V17.1768H129.896V13.8492C129.704 14.4647 129.342 15.045 128.81 15.5898C128.278 16.135 127.63 16.5707 126.867 16.8977C126.104 17.2246 125.3 17.3881 124.453 17.3881C123.427 17.3881 122.623 17.1414 122.039 16.6477L122.039 16.6484ZM127.348 15.3884C128.047 15.042 128.63 14.5359 129.098 13.8689C129.566 13.2021 129.8 12.407 129.8 11.4838V11.1374L130.301 11.3491C129.967 11.5546 129.599 11.7242 129.195 11.8589C128.791 11.9935 128.32 12.1059 127.781 12.1954L125.857 12.5223C125.203 12.6376 124.697 12.75 124.338 12.8588C123.979 12.9679 123.694 13.1376 123.482 13.3685C123.27 13.5996 123.164 13.92 123.164 14.3301C123.164 14.8432 123.36 15.234 123.751 15.5033C124.142 15.7726 124.646 15.9073 125.261 15.9073C125.954 15.9073 126.649 15.7343 127.348 15.388L127.348 15.3884Z" fill="#00665A"/>
<path d="M133.875 5.79033H135.721V9.59861C135.991 8.77827 136.395 8.0663 136.933 7.46345C137.472 6.861 138.078 6.39935 138.751 6.07862C139.424 5.75822 140.1 5.59766 140.78 5.59766C141.408 5.59766 141.976 5.72937 142.483 5.99211C142.989 6.25524 143.387 6.65261 143.675 7.18466C143.964 7.71671 144.108 8.36115 144.108 9.11765V17.1768H142.127V9.71392C142.127 8.89359 141.922 8.27138 141.511 7.84807C141.101 7.42477 140.556 7.21351 139.876 7.21351C139.235 7.21351 138.603 7.41236 137.982 7.80978C137.36 8.20754 136.85 8.7684 136.453 9.49278C136.055 10.2175 135.856 11.0349 135.856 11.945V17.1768H133.875V5.78994L133.875 5.79033Z" fill="#00665A"/>
<path d="M146.422 16.6484C145.839 16.155 145.547 15.4785 145.547 14.6191C145.547 13.8882 145.736 13.3145 146.115 12.8975C146.493 12.4807 146.977 12.176 147.567 11.9837C148.157 11.7914 148.9 11.6312 149.798 11.5027L152.01 11.1758C152.921 11.0477 153.622 10.8233 154.117 10.5025C154.61 10.1821 154.857 9.68837 154.857 9.02131C154.857 8.35424 154.594 7.83533 154.068 7.46345C153.542 7.09163 152.901 6.90552 152.145 6.90552C151.58 6.90552 151.042 7.01791 150.529 7.24197C150.016 7.46637 149.59 7.79665 149.25 8.2327C148.91 8.6688 148.727 9.20119 148.702 9.82923H146.606C146.631 8.99576 146.894 8.25863 147.394 7.61745C147.894 6.97631 148.539 6.47964 149.327 6.12679C150.116 5.77428 150.953 5.59766 151.838 5.59766C152.645 5.59766 153.373 5.73885 154.02 6.02096C154.668 6.30302 155.184 6.73912 155.569 7.32882C155.953 7.91887 156.146 8.64325 156.146 9.50227V17.1768H154.28V13.8492C154.087 14.4647 153.725 15.045 153.193 15.5898C152.661 16.135 152.013 16.5707 151.25 16.8977C150.487 17.2246 149.683 17.3881 148.836 17.3881C147.81 17.3881 147.006 17.1414 146.423 16.6477L146.422 16.6484ZM151.731 15.3884C152.43 15.042 153.013 14.5359 153.481 13.8689C153.949 13.2021 154.183 12.407 154.183 11.4838V11.1374L154.683 11.3491C154.35 11.5546 153.981 11.7242 153.577 11.8589C153.173 11.9935 152.702 12.1059 152.164 12.1954L150.24 12.5223C149.586 12.6376 149.079 12.75 148.72 12.8588C148.361 12.9679 148.076 13.1376 147.864 13.3685C147.653 13.5996 147.547 13.92 147.547 14.3301C147.547 14.8432 147.742 15.234 148.133 15.5033C148.525 15.7726 149.028 15.9073 149.644 15.9073C150.336 15.9073 151.031 15.7343 151.731 15.388L151.731 15.3884Z" fill="#00665A"/>
<path d="M160.436 21.0139C159.641 20.7895 158.891 20.4658 158.186 20.0425V17.9267C158.852 18.4267 159.586 18.8179 160.388 19.0999C161.189 19.382 161.974 19.5232 162.744 19.5232C163.514 19.5232 164.26 19.3725 164.908 19.0711C165.555 18.7697 166.072 18.3048 166.457 17.6767C166.841 17.0487 167.034 16.2725 167.034 15.3493V13.3105L167.206 13.5605C166.911 14.5221 166.36 15.2756 165.552 15.8204C164.744 16.3656 163.802 16.6379 162.725 16.6379C161.647 16.6379 160.698 16.3944 159.955 15.9069C159.211 15.4198 158.663 14.7691 158.31 13.9546C157.957 13.1405 157.781 12.2461 157.781 11.2714C157.781 10.2967 157.964 9.35737 158.329 8.49218C158.695 7.62659 159.249 6.92775 159.993 6.39571C160.737 5.86366 161.641 5.59766 162.705 5.59766C163.769 5.59766 164.609 5.83193 165.34 6.29976C166.071 6.76792 166.565 7.4058 166.821 8.21372V5.79033H168.687V15.927C168.687 17.1067 168.421 18.1034 167.889 18.9179C167.357 19.732 166.645 20.341 165.754 20.745C164.863 21.149 163.885 21.3507 162.821 21.3507C162.025 21.3507 161.231 21.2383 160.435 21.0143L160.436 21.0139ZM165.533 14.6761C166.11 14.2914 166.543 13.7882 166.832 13.166C167.12 12.5442 167.264 11.8742 167.264 11.1561C167.264 10.4379 167.117 9.7745 166.822 9.16542C166.527 8.5564 166.094 8.06595 165.524 7.69408C164.953 7.32225 164.264 7.13615 163.456 7.13615C162.648 7.13615 161.971 7.32551 161.427 7.70357C160.882 8.08201 160.478 8.57864 160.215 9.19428C159.952 9.80987 159.82 10.4832 159.82 11.2137C159.82 11.9443 159.961 12.6562 160.244 13.2719C160.525 13.8874 160.939 14.3713 161.484 14.7242C162.029 15.0771 162.686 15.253 163.456 15.253C164.264 15.253 164.956 15.0607 165.534 14.6761H165.533Z" fill="#00665A"/>
<path d="M172.823 16.5422C171.964 15.9781 171.317 15.2409 170.88 14.3301C170.445 13.4196 170.227 12.4519 170.227 11.4257C170.227 10.3996 170.435 9.47998 170.852 8.58852C171.269 7.69739 171.887 6.97631 172.708 6.42456C173.528 5.87353 174.522 5.59766 175.69 5.59766C177.138 5.59766 178.231 6.05307 178.969 6.96318C179.706 7.87362 180.075 9.20741 180.075 10.9637V11.56H171.362L171.381 10.3292H178.113C178.113 9.14976 177.892 8.26812 177.449 7.68459C177.007 7.10111 176.344 6.80952 175.459 6.80952C174.715 6.80952 174.08 6.99894 173.555 7.37699C173.029 7.75539 172.628 8.25863 172.353 8.88702C172.077 9.5154 171.939 10.1887 171.939 10.9065C171.939 11.6757 172.099 12.4037 172.42 13.0894C172.741 13.7754 173.225 14.3301 173.873 14.753C174.52 15.1763 175.312 15.3876 176.248 15.3876C176.966 15.3876 177.678 15.2563 178.383 14.9931C179.088 14.7304 179.755 14.3363 180.384 13.8101V15.7912C179.717 16.3171 179.008 16.7145 178.259 16.9838C177.508 17.2531 176.736 17.3877 175.941 17.3877C174.722 17.3877 173.684 17.1057 172.825 16.5415L172.823 16.5422Z" fill="#00665A"/>
<path d="M182.113 5.78898H183.96V9.19326C184.306 8.03939 184.86 7.16106 185.623 6.55822C186.386 5.95572 187.223 5.6543 188.133 5.6543C188.865 5.6543 189.487 5.8532 189.999 6.25057V8.27002C189.679 8.01385 189.323 7.81791 188.932 7.68323C188.541 7.5486 188.14 7.48146 187.73 7.48146C187.204 7.48146 186.701 7.58729 186.22 7.79894C185.739 8.01059 185.312 8.31527 184.941 8.71269C184.569 9.11045 184.287 9.57827 184.095 10.1169V17.1758H182.114V5.78898H182.113Z" fill="#00665A"/>
</svg>
